<?xml version="1.0" encoding="utf-8"?>
<svg viewBox="0 0 100 17.5" width="100" height="17.5" xmlns="http://www.w3.org/2000/svg">
  <path classname="" fill="#121212" d="M 47.96 13.257 C 47.96 11.886 47.3 10.629 46.09 10.286 C 47.52 9.829 47.96 8.8 47.96 7.2 L 47.96 4.229 C 47.96 1.714 46.75 0.343 44.22 0.343 L 39.6 0.343 L 39.6 19.657 L 42.02 19.657 L 42.02 11.2 L 44 11.2 C 45.1 11.2 45.54 11.886 45.54 13.029 L 45.54 15.314 C 45.54 17.486 45.65 18.629 45.87 19.657 L 48.51 19.657 C 48.07 18.286 47.96 17.029 47.96 15.314 L 47.96 13.257 Z M 45.43 7.429 C 45.43 8.571 44.88 9.257 43.89 9.257 L 42.02 9.257 L 42.02 2.629 L 44.11 2.629 C 45.1 2.629 45.43 3.2 45.43 4.229 L 45.43 7.429 Z M 0 0.343 L 2.42 0.343 L 2.42 19.657 L 0 19.657 L 0 0.343 Z M 12.98 13.029 L 11.88 10.057 L 8.25 0.343 L 6.16 0.343 L 6.16 19.657 L 8.47 19.657 L 8.47 7.086 L 9.57 10.057 L 13.53 19.657 L 15.29 19.657 L 15.29 0.343 L 12.98 0.343 L 12.98 13.029 Z M 22.77 0 C 20.02 0 18.48 1.943 18.48 4.571 C 18.48 7.086 20.24 9.257 22 10.857 C 23.54 12.229 24.53 13.6 24.53 15.657 C 24.53 17.029 23.87 17.829 22.55 17.829 C 21.12 17.829 20.57 16.8 20.57 15.314 L 20.57 13.714 L 18.15 13.714 L 18.15 15.543 C 18.15 18.057 19.91 19.886 22.55 19.886 C 24.97 19.886 26.95 18.171 26.95 15.2 C 26.95 12.686 25.63 10.857 23.76 9.143 C 22.11 7.543 20.9 6.4 20.9 4.114 C 20.9 2.971 21.56 2.171 22.77 2.171 C 24.09 2.171 24.75 3.2 24.75 4.571 L 24.75 6.171 L 27.06 6.171 L 27.06 4.343 C 26.84 1.829 25.3 0 22.77 0 Z M 28.6 2.629 L 31.79 2.629 L 31.79 19.657 L 34.1 19.657 L 34.1 2.629 L 37.29 2.629 L 37.29 0.343 L 28.6 0.343 L 28.6 2.629 Z M 57.75 15.657 C 57.75 17.029 57.09 17.829 55.77 17.829 C 54.45 17.829 53.79 17.029 53.79 15.657 L 53.79 0.343 L 51.37 0.343 L 51.37 15.543 C 51.37 18.286 53.24 20 55.77 20 C 58.3 20 60.17 18.286 60.17 15.543 L 60.17 0.343 L 57.75 0.343 L 57.75 15.657 Z M 70.51 12.343 L 69.96 15.543 L 69.41 12.343 L 67.32 0.343 L 63.91 0.343 L 63.91 19.657 L 66.11 19.657 L 66.11 5.371 L 66.66 8.343 L 68.75 19.657 L 71.06 19.657 L 73.15 8.343 L 73.7 5.371 L 73.7 19.657 L 75.9 19.657 L 75.9 0.343 L 72.6 0.343 L 70.51 12.343 Z M 79.64 19.657 L 87.01 19.657 L 87.01 17.371 L 82.06 17.371 L 82.06 10.743 L 85.91 10.743 L 85.91 8.571 L 82.06 8.571 L 82.06 2.629 L 87.01 2.629 L 87.01 0.343 L 79.64 0.343 L 79.64 19.657 Z M 96.8 13.029 L 95.7 10.057 L 92.07 0.343 L 90.09 0.343 L 90.09 19.657 L 92.29 19.657 L 92.29 7.086 L 93.5 10.057 L 97.35 19.657 L 99.11 19.657 L 99.11 0.343 L 96.8 0.343 L 96.8 13.029 Z M 101.42 0.343 L 101.42 2.629 L 104.5 2.629 L 104.5 19.657 L 106.92 19.657 L 106.92 2.629 L 110 2.629 L 110 0.343 L 101.42 0.343 Z"/>
</svg>